<svg width="50" height="50" viewBox="0 0 50 50" fill="none" xmlns="http://www.w3.org/2000/svg">
<path d="M25 50C38.8058 50 50 38.8058 50 25C50 11.1942 38.8058 4.76837e-07 25 4.76837e-07C11.1942 4.76837e-07 4.76837e-07 11.1942 4.76837e-07 25C4.76837e-07 38.8058 11.1942 50 25 50ZM15.7701 15.5022L19.4531 15.519L25 22.1317L30.5413 15.5246L34.2299 15.5078C34.4754 15.5078 34.6763 15.7031 34.6763 15.9542C34.6763 16.0603 34.6373 16.1607 34.5703 16.2444L27.3103 24.894L34.5703 33.5379C34.6377 33.6197 34.6752 33.7221 34.6763 33.8281C34.6763 34.0737 34.4754 34.2746 34.2299 34.2746L30.5413 34.2578L25 27.6451L19.4587 34.2522L15.7757 34.269C15.5301 34.269 15.3292 34.0737 15.3292 33.8225C15.3292 33.7165 15.3683 33.6161 15.4353 33.5324L22.6842 24.8884L15.4297 16.2388C15.3627 16.1551 15.3237 16.0547 15.3237 15.9487C15.3237 15.7031 15.5246 15.5022 15.7701 15.5022Z" fill="url(#paint0_linear_42_69)"/>
<defs>
<linearGradient id="paint0_linear_42_69" x1="25" y1="50" x2="25" y2="0" gradientUnits="userSpaceOnUse">
<stop stop-color="#FC00C4"/>
<stop offset="0.463542" stop-color="#296452" stop-opacity="0.83"/>
<stop offset="1"/>
</linearGradient>
</defs>
</svg>
