<svg width="101" height="101" viewBox="0 0 101 101" fill="none" xmlns="http://www.w3.org/2000/svg">
<path d="M50.606 100.302C37.3454 100.382 24.596 95.1915 15.1624 85.8718C5.72885 76.552 0.383931 63.8665 0.303453 50.606C0.222975 37.3454 5.41353 24.596 14.7333 15.1624C24.053 5.72885 36.7385 0.38392 49.9991 0.303442C63.2597 0.222964 76.0091 5.41353 85.4427 14.7333C94.8762 24.053 100.221 36.7385 100.302 49.9991C100.382 63.2597 95.1915 76.0091 85.8718 85.4426C76.552 94.8762 63.8666 100.221 50.606 100.302ZM72.1961 53.2947C73.0249 53.2897 73.8177 52.9556 74.4002 52.366C74.9827 51.7764 75.3071 50.9796 75.3021 50.1508C75.297 49.322 74.963 48.5292 74.3734 47.9467C73.7838 47.3642 72.987 47.0398 72.1582 47.0448L35.9526 47.2646L49.2897 33.7709C49.8729 33.1805 50.1977 32.3827 50.1927 31.5528C50.1877 30.723 49.8532 29.9292 49.2628 29.3459C48.6725 28.7627 47.8746 28.4379 47.0448 28.4429C46.215 28.448 45.4211 28.7825 44.8379 29.3728L26.202 48.2362C25.9128 48.5283 25.684 48.8745 25.5288 49.2551C25.3735 49.6357 25.2949 50.0432 25.2974 50.4543C25.2999 50.8653 25.3835 51.2718 25.5433 51.6505C25.7031 52.0292 25.9361 52.3727 26.2289 52.6612L45.0923 71.297C45.6827 71.8802 46.4805 72.2051 47.3104 72.2C48.1402 72.195 48.934 71.8605 49.5173 71.2702C50.1005 70.6798 50.4253 69.882 50.4203 69.0522C50.4152 68.2223 50.0808 67.4285 49.4904 66.8453L35.9905 53.5144L72.1961 53.2947Z" fill="url(#paint0_linear_2_24)"/>
<defs>
<linearGradient id="paint0_linear_2_24" x1="100.302" y1="49.9991" x2="0.303453" y2="50.606" gradientUnits="userSpaceOnUse">
<stop stop-color="#FC00C4"/>
<stop offset="0.463542" stop-color="#296452" stop-opacity="0.83"/>
<stop offset="1"/>
</linearGradient>
</defs>
</svg>
