<svg width="82" height="82" viewBox="0 0 82 82" fill="none" xmlns="http://www.w3.org/2000/svg">
<g filter="url(#filter0_d_2_68)">
<path fill-rule="evenodd" clip-rule="evenodd" d="M8.625 37C8.625 45.5864 12.0359 53.8211 18.1074 59.8926C24.1789 65.9641 32.4136 69.375 41 69.375C49.5864 69.375 57.8211 65.9641 63.8926 59.8926C69.9641 53.8211 73.375 45.5864 73.375 37C73.375 28.4136 69.9641 20.1789 63.8926 14.1074C57.8211 8.03593 49.5864 4.625 41 4.625C32.4136 4.625 24.1789 8.03593 18.1074 14.1074C12.0359 20.1789 8.625 28.4136 8.625 37ZM78 37C78 46.813 74.1018 56.2241 67.163 63.163C60.2241 70.1018 50.813 74 41 74C31.187 74 21.7759 70.1018 14.837 63.163C7.8982 56.2241 4 46.813 4 37C4 27.187 7.8982 17.7759 14.837 10.837C21.7759 3.8982 31.187 0 41 0C50.813 0 60.2241 3.8982 67.163 10.837C74.1018 17.7759 78 27.187 78 37ZM43.3125 20.8125C43.3125 20.1992 43.0689 19.611 42.6352 19.1773C42.2015 18.7436 41.6133 18.5 41 18.5C40.3867 18.5 39.7985 18.7436 39.3648 19.1773C38.9311 19.611 38.6875 20.1992 38.6875 20.8125V47.6051L28.7623 37.6753C28.328 37.241 27.7391 36.9971 27.125 36.9971C26.5109 36.9971 25.922 37.241 25.4877 37.6753C25.0535 38.1095 24.8096 38.6984 24.8096 39.3125C24.8096 39.9266 25.0535 40.5155 25.4877 40.9497L39.3628 54.8247C39.5776 55.0401 39.8327 55.211 40.1137 55.3275C40.3946 55.4441 40.6958 55.5041 41 55.5041C41.3042 55.5041 41.6054 55.4441 41.8863 55.3275C42.1673 55.211 42.4224 55.0401 42.6372 54.8247L56.5122 40.9497C56.9465 40.5155 57.1904 39.9266 57.1904 39.3125C57.1904 38.6984 56.9465 38.1095 56.5122 37.6753C56.078 37.241 55.4891 36.9971 54.875 36.9971C54.2609 36.9971 53.672 37.241 53.2378 37.6753L43.3125 47.6051V20.8125Z" fill="url(#paint0_linear_2_68)"/>
</g>
<defs>
<filter id="filter0_d_2_68" x="0" y="0" width="82" height="82" filterUnits="userSpaceOnUse" color-interpolation-filters="sRGB">
<feFlood flood-opacity="0" result="BackgroundImageFix"/>
<feColorMatrix in="SourceAlpha" type="matrix" values="0 0 0 0 0 0 0 0 0 0 0 0 0 0 0 0 0 0 127 0" result="hardAlpha"/>
<feOffset dy="4"/>
<feGaussianBlur stdDeviation="2"/>
<feComposite in2="hardAlpha" operator="out"/>
<feColorMatrix type="matrix" values="0 0 0 0 1 0 0 0 0 1 0 0 0 0 1 0 0 0 0.25 0"/>
<feBlend mode="normal" in2="BackgroundImageFix" result="effect1_dropShadow_2_68"/>
<feBlend mode="normal" in="SourceGraphic" in2="effect1_dropShadow_2_68" result="shape"/>
</filter>
<linearGradient id="paint0_linear_2_68" x1="41" y1="0" x2="41" y2="74" gradientUnits="userSpaceOnUse">
<stop stop-color="#D617B2"/>
<stop offset="1" stop-color="#0F1A17"/>
</linearGradient>
</defs>
</svg>
